<?xml version="1.0" encoding="UTF-8"?>
<svg xmlns="http://www.w3.org/2000/svg" xmlns:xlink="http://www.w3.org/1999/xlink" width="75px" height="45px" viewBox="0 0 75 45" version="1.1">
<g id="surface1">
<path style=" stroke:none;fill-rule:nonzero;fill:rgb(14.509804%,18.431373%,24.313725%);fill-opacity:1;" d="M 21.316406 16.417969 C 21.316406 17.332031 21.414062 18.074219 21.585938 18.617188 C 21.785156 19.160156 22.03125 19.753906 22.375 20.398438 C 22.5 20.597656 22.550781 20.792969 22.550781 20.96875 C 22.550781 21.214844 22.402344 21.460938 22.082031 21.707031 L 20.527344 22.746094 C 20.304688 22.894531 20.082031 22.96875 19.886719 22.96875 C 19.636719 22.96875 19.390625 22.847656 19.144531 22.625 C 18.800781 22.253906 18.503906 21.855469 18.257812 21.460938 C 18.011719 21.042969 17.761719 20.570312 17.492188 20.003906 C 15.566406 22.277344 13.148438 23.414062 10.238281 23.414062 C 8.167969 23.414062 6.511719 22.820312 5.304688 21.632812 C 4.09375 20.449219 3.480469 18.867188 3.480469 16.886719 C 3.480469 14.785156 4.21875 13.078125 5.722656 11.792969 C 7.230469 10.507812 9.226562 9.867188 11.769531 9.867188 C 12.605469 9.867188 13.46875 9.941406 14.382812 10.0625 C 15.296875 10.1875 16.234375 10.382812 17.21875 10.605469 L 17.21875 8.800781 C 17.21875 6.921875 16.824219 5.613281 16.0625 4.847656 C 15.269531 4.078125 13.9375 3.707031 12.039062 3.707031 C 11.175781 3.707031 10.289062 3.808594 9.375 4.03125 C 8.460938 4.253906 7.574219 4.523438 6.710938 4.871094 C 6.316406 5.042969 6.019531 5.144531 5.847656 5.191406 C 5.675781 5.242188 5.550781 5.265625 5.453125 5.265625 C 5.105469 5.265625 4.933594 5.019531 4.933594 4.5 L 4.933594 3.289062 C 4.933594 2.894531 4.984375 2.597656 5.105469 2.421875 C 5.230469 2.25 5.453125 2.078125 5.796875 1.902344 C 6.660156 1.457031 7.699219 1.089844 8.90625 0.792969 C 10.113281 0.46875 11.398438 0.320312 12.753906 0.320312 C 15.691406 0.320312 17.835938 0.988281 19.21875 2.324219 C 20.574219 3.660156 21.265625 5.6875 21.265625 8.40625 L 21.265625 16.417969 Z M 11.300781 20.175781 C 12.113281 20.175781 12.953125 20.027344 13.839844 19.730469 C 14.730469 19.433594 15.519531 18.890625 16.183594 18.148438 C 16.578125 17.679688 16.875 17.160156 17.023438 16.566406 C 17.171875 15.972656 17.269531 15.253906 17.269531 14.414062 L 17.269531 13.375 C 16.554688 13.203125 15.789062 13.054688 15 12.957031 C 14.210938 12.855469 13.445312 12.808594 12.679688 12.808594 C 11.027344 12.808594 9.820312 13.128906 9.003906 13.796875 C 8.191406 14.464844 7.796875 15.402344 7.796875 16.640625 C 7.796875 17.800781 8.09375 18.667969 8.707031 19.261719 C 9.300781 19.878906 10.164062 20.175781 11.300781 20.175781 Z M 31.109375 22.847656 C 30.667969 22.847656 30.371094 22.773438 30.171875 22.597656 C 29.976562 22.449219 29.800781 22.105469 29.65625 21.632812 L 23.855469 2.523438 C 23.707031 2.027344 23.636719 1.707031 23.636719 1.53125 C 23.636719 1.136719 23.832031 0.914062 24.226562 0.914062 L 26.644531 0.914062 C 27.113281 0.914062 27.433594 0.988281 27.605469 1.160156 C 27.804688 1.308594 27.953125 1.65625 28.101562 2.125 L 32.246094 18.496094 L 36.09375 2.125 C 36.21875 1.632812 36.363281 1.308594 36.5625 1.160156 C 36.761719 1.015625 37.105469 0.914062 37.550781 0.914062 L 39.523438 0.914062 C 39.992188 0.914062 40.3125 0.988281 40.511719 1.160156 C 40.707031 1.308594 40.878906 1.65625 40.980469 2.125 L 44.875 18.691406 L 49.144531 2.125 C 49.292969 1.632812 49.464844 1.308594 49.636719 1.160156 C 49.835938 1.015625 50.15625 0.914062 50.601562 0.914062 L 52.894531 0.914062 C 53.289062 0.914062 53.511719 1.113281 53.511719 1.53125 C 53.511719 1.65625 53.488281 1.78125 53.460938 1.929688 C 53.4375 2.078125 53.386719 2.273438 53.289062 2.546875 L 47.34375 21.660156 C 47.195312 22.152344 47.023438 22.476562 46.824219 22.625 C 46.628906 22.773438 46.308594 22.871094 45.886719 22.871094 L 43.765625 22.871094 C 43.296875 22.871094 42.976562 22.796875 42.78125 22.625 C 42.582031 22.449219 42.410156 22.128906 42.3125 21.632812 L 38.488281 5.6875 L 34.6875 21.609375 C 34.5625 22.105469 34.417969 22.425781 34.21875 22.597656 C 34.019531 22.773438 33.675781 22.847656 33.230469 22.847656 Z M 62.8125 23.515625 C 61.53125 23.515625 60.246094 23.367188 59.011719 23.070312 C 57.78125 22.773438 56.816406 22.449219 56.175781 22.078125 C 55.78125 21.855469 55.511719 21.609375 55.410156 21.386719 C 55.3125 21.164062 55.261719 20.917969 55.261719 20.695312 L 55.261719 19.433594 C 55.261719 18.914062 55.460938 18.667969 55.832031 18.667969 C 55.980469 18.667969 56.125 18.691406 56.273438 18.742188 C 56.421875 18.792969 56.644531 18.890625 56.890625 18.988281 C 57.730469 19.359375 58.644531 19.65625 59.605469 19.855469 C 60.59375 20.050781 61.554688 20.152344 62.542969 20.152344 C 64.09375 20.152344 65.304688 19.878906 66.144531 19.335938 C 66.980469 18.792969 67.425781 18 67.425781 16.984375 C 67.425781 16.292969 67.203125 15.726562 66.761719 15.253906 C 66.316406 14.785156 65.476562 14.367188 64.269531 13.96875 L 60.691406 12.855469 C 58.890625 12.289062 57.558594 11.449219 56.742188 10.335938 C 55.929688 9.246094 55.511719 8.035156 55.511719 6.75 C 55.511719 5.710938 55.730469 4.796875 56.175781 4.003906 C 56.621094 3.214844 57.210938 2.523438 57.953125 1.976562 C 58.691406 1.410156 59.53125 0.988281 60.519531 0.691406 C 61.503906 0.394531 62.542969 0.273438 63.625 0.273438 C 64.167969 0.273438 64.738281 0.296875 65.28125 0.371094 C 65.847656 0.445312 66.363281 0.542969 66.882812 0.644531 C 67.375 0.765625 67.84375 0.890625 68.289062 1.039062 C 68.734375 1.1875 69.078125 1.335938 69.324219 1.484375 C 69.671875 1.679688 69.917969 1.878906 70.066406 2.101562 C 70.214844 2.300781 70.289062 2.570312 70.289062 2.917969 L 70.289062 4.078125 C 70.289062 4.597656 70.089844 4.871094 69.71875 4.871094 C 69.523438 4.871094 69.203125 4.773438 68.78125 4.574219 C 67.375 3.929688 65.796875 3.609375 64.046875 3.609375 C 62.640625 3.609375 61.53125 3.832031 60.765625 4.300781 C 60 4.773438 59.605469 5.488281 59.605469 6.503906 C 59.605469 7.195312 59.851562 7.789062 60.34375 8.257812 C 60.839844 8.726562 61.75 9.199219 63.058594 9.617188 L 66.5625 10.730469 C 68.339844 11.300781 69.621094 12.089844 70.386719 13.105469 C 71.152344 14.117188 71.519531 15.28125 71.519531 16.566406 C 71.519531 17.628906 71.300781 18.59375 70.878906 19.433594 C 70.4375 20.273438 69.84375 21.015625 69.078125 21.609375 C 68.3125 22.226562 67.402344 22.671875 66.339844 22.996094 C 65.230469 23.339844 64.070312 23.515625 62.8125 23.515625 Z M 62.8125 23.515625 "/>
<path style=" stroke:none;fill-rule:evenodd;fill:rgb(100%,60%,0%);fill-opacity:1;" d="M 67.476562 35.53125 C 59.359375 41.539062 47.566406 44.726562 37.425781 44.726562 C 23.214844 44.726562 10.410156 39.460938 0.738281 30.707031 C -0.0234375 30.015625 0.667969 29.078125 1.578125 29.621094 C 12.039062 35.703125 24.941406 39.386719 38.289062 39.386719 C 47.292969 39.386719 57.1875 37.507812 66.292969 33.652344 C 67.648438 33.03125 68.808594 34.542969 67.476562 35.53125 Z M 67.476562 35.53125 "/>
<path style=" stroke:none;fill-rule:evenodd;fill:rgb(100%,60%,0%);fill-opacity:1;" d="M 70.855469 31.671875 C 69.820312 30.339844 63.996094 31.03125 61.355469 31.351562 C 60.566406 31.449219 60.445312 30.757812 61.160156 30.238281 C 65.796875 26.976562 73.421875 27.914062 74.308594 29.003906 C 75.199219 30.117188 74.0625 37.753906 69.71875 41.414062 C 69.054688 41.984375 68.414062 41.6875 68.707031 40.945312 C 69.695312 38.496094 71.890625 32.984375 70.855469 31.671875 Z M 70.855469 31.671875 "/>
</g>
</svg>
