<?xml version="1.0" encoding="UTF-8"?>
<svg xmlns="http://www.w3.org/2000/svg" xmlns:xlink="http://www.w3.org/1999/xlink" width="60px" height="36px" viewBox="0 0 60 36" version="1.1">
<g id="surface1">
<path style=" stroke:none;fill-rule:nonzero;fill:rgb(14.509804%,18.431373%,24.313725%);fill-opacity:1;" d="M 17.050781 13.132812 C 17.050781 13.867188 17.132812 14.460938 17.269531 14.894531 C 17.425781 15.328125 17.625 15.804688 17.902344 16.320312 C 18 16.476562 18.039062 16.636719 18.039062 16.773438 C 18.039062 16.972656 17.921875 17.167969 17.664062 17.367188 L 16.421875 18.199219 C 16.242188 18.316406 16.066406 18.375 15.90625 18.375 C 15.710938 18.375 15.511719 18.277344 15.316406 18.097656 C 15.039062 17.800781 14.800781 17.484375 14.605469 17.167969 C 14.40625 16.832031 14.210938 16.457031 13.992188 16.003906 C 12.453125 17.820312 10.519531 18.730469 8.191406 18.730469 C 6.53125 18.730469 5.210938 18.257812 4.242188 17.308594 C 3.277344 16.359375 2.78125 15.09375 2.78125 13.511719 C 2.78125 11.828125 3.375 10.464844 4.578125 9.433594 C 5.78125 8.40625 7.382812 7.890625 9.414062 7.890625 C 10.085938 7.890625 10.777344 7.953125 11.507812 8.050781 C 12.238281 8.148438 12.988281 8.308594 13.777344 8.484375 L 13.777344 7.042969 C 13.777344 5.539062 13.460938 4.488281 12.847656 3.875 C 12.21875 3.265625 11.152344 2.96875 9.632812 2.96875 C 8.941406 2.96875 8.230469 3.046875 7.5 3.222656 C 6.769531 3.402344 6.058594 3.621094 5.367188 3.898438 C 5.050781 4.035156 4.816406 4.113281 4.675781 4.152344 C 4.539062 4.195312 4.441406 4.214844 4.363281 4.214844 C 4.085938 4.214844 3.949219 4.015625 3.949219 3.601562 L 3.949219 2.628906 C 3.949219 2.3125 3.988281 2.078125 4.085938 1.9375 C 4.183594 1.800781 4.363281 1.660156 4.636719 1.523438 C 5.328125 1.167969 6.15625 0.871094 7.125 0.632812 C 8.09375 0.375 9.117188 0.257812 10.203125 0.257812 C 12.550781 0.257812 14.269531 0.792969 15.375 1.859375 C 16.460938 2.925781 17.011719 4.550781 17.011719 6.726562 L 17.011719 13.132812 Z M 9.039062 16.140625 C 9.691406 16.140625 10.363281 16.023438 11.074219 15.785156 C 11.78125 15.546875 12.414062 15.113281 12.949219 14.519531 C 13.261719 14.144531 13.5 13.726562 13.617188 13.253906 C 13.738281 12.777344 13.816406 12.203125 13.816406 11.53125 L 13.816406 10.699219 C 13.242188 10.5625 12.632812 10.445312 12 10.363281 C 11.367188 10.285156 10.757812 10.246094 10.144531 10.246094 C 8.824219 10.246094 7.855469 10.503906 7.203125 11.039062 C 6.550781 11.570312 6.238281 12.324219 6.238281 13.3125 C 6.238281 14.242188 6.472656 14.933594 6.96875 15.410156 C 7.441406 15.902344 8.132812 16.140625 9.039062 16.140625 Z M 24.886719 18.277344 C 24.53125 18.277344 24.296875 18.21875 24.136719 18.078125 C 23.980469 17.960938 23.84375 17.683594 23.722656 17.308594 L 19.085938 2.019531 C 18.96875 1.621094 18.90625 1.363281 18.90625 1.226562 C 18.90625 0.910156 19.066406 0.730469 19.382812 0.730469 L 21.316406 0.730469 C 21.691406 0.730469 21.949219 0.792969 22.085938 0.929688 C 22.242188 1.046875 22.363281 1.324219 22.480469 1.699219 L 25.796875 14.796875 L 28.875 1.699219 C 28.972656 1.304688 29.09375 1.046875 29.25 0.929688 C 29.40625 0.8125 29.683594 0.730469 30.039062 0.730469 L 31.617188 0.730469 C 31.992188 0.730469 32.25 0.792969 32.40625 0.929688 C 32.566406 1.046875 32.703125 1.324219 32.78125 1.699219 L 35.902344 14.953125 L 39.316406 1.699219 C 39.433594 1.304688 39.574219 1.046875 39.710938 0.929688 C 39.867188 0.8125 40.125 0.730469 40.480469 0.730469 L 42.316406 0.730469 C 42.632812 0.730469 42.808594 0.890625 42.808594 1.226562 C 42.808594 1.324219 42.789062 1.425781 42.769531 1.542969 C 42.75 1.660156 42.710938 1.820312 42.632812 2.039062 L 37.875 17.328125 C 37.757812 17.722656 37.617188 17.980469 37.460938 18.097656 C 37.300781 18.21875 37.046875 18.296875 36.710938 18.296875 L 35.011719 18.296875 C 34.636719 18.296875 34.382812 18.238281 34.222656 18.097656 C 34.066406 17.960938 33.925781 17.703125 33.847656 17.308594 L 30.789062 4.550781 L 27.75 17.289062 C 27.652344 17.683594 27.53125 17.941406 27.375 18.078125 C 27.21875 18.21875 26.941406 18.277344 26.585938 18.277344 Z M 50.25 18.8125 C 49.222656 18.8125 48.199219 18.691406 47.210938 18.453125 C 46.222656 18.21875 45.453125 17.960938 44.941406 17.664062 C 44.625 17.484375 44.40625 17.289062 44.328125 17.109375 C 44.25 16.933594 44.210938 16.734375 44.210938 16.554688 L 44.210938 15.546875 C 44.210938 15.132812 44.367188 14.933594 44.664062 14.933594 C 44.78125 14.933594 44.902344 14.953125 45.019531 14.992188 C 45.136719 15.03125 45.316406 15.113281 45.511719 15.191406 C 46.183594 15.488281 46.914062 15.726562 47.683594 15.882812 C 48.472656 16.042969 49.242188 16.121094 50.03125 16.121094 C 51.277344 16.121094 52.242188 15.902344 52.914062 15.46875 C 53.585938 15.03125 53.941406 14.398438 53.941406 13.589844 C 53.941406 13.035156 53.761719 12.582031 53.40625 12.203125 C 53.050781 11.828125 52.382812 11.492188 51.414062 11.175781 L 48.550781 10.285156 C 47.113281 9.832031 46.046875 9.160156 45.394531 8.269531 C 44.742188 7.398438 44.40625 6.429688 44.40625 5.398438 C 44.40625 4.570312 44.585938 3.835938 44.941406 3.203125 C 45.296875 2.570312 45.769531 2.019531 46.363281 1.582031 C 46.953125 1.128906 47.625 0.792969 48.414062 0.554688 C 49.203125 0.316406 50.03125 0.21875 50.902344 0.21875 C 51.335938 0.21875 51.789062 0.238281 52.222656 0.296875 C 52.675781 0.355469 53.09375 0.433594 53.507812 0.515625 C 53.902344 0.613281 54.277344 0.710938 54.632812 0.832031 C 54.988281 0.949219 55.261719 1.066406 55.460938 1.1875 C 55.738281 1.34375 55.933594 1.503906 56.050781 1.679688 C 56.171875 1.839844 56.230469 2.058594 56.230469 2.335938 L 56.230469 3.265625 C 56.230469 3.679688 56.074219 3.898438 55.777344 3.898438 C 55.617188 3.898438 55.363281 3.816406 55.027344 3.660156 C 53.902344 3.144531 52.636719 2.886719 51.238281 2.886719 C 50.113281 2.886719 49.222656 3.066406 48.613281 3.441406 C 48 3.816406 47.683594 4.390625 47.683594 5.203125 C 47.683594 5.757812 47.882812 6.230469 48.277344 6.605469 C 48.671875 6.980469 49.402344 7.359375 50.449219 7.695312 L 53.25 8.585938 C 54.671875 9.039062 55.699219 9.671875 56.308594 10.484375 C 56.921875 11.292969 57.21875 12.222656 57.21875 13.253906 C 57.21875 14.101562 57.039062 14.875 56.703125 15.546875 C 56.347656 16.21875 55.875 16.8125 55.261719 17.289062 C 54.652344 17.78125 53.921875 18.136719 53.074219 18.394531 C 52.183594 18.671875 51.257812 18.8125 50.25 18.8125 Z M 50.25 18.8125 "/>
<path style=" stroke:none;fill-rule:evenodd;fill:rgb(100%,60%,0%);fill-opacity:1;" d="M 53.980469 28.425781 C 47.488281 33.230469 38.050781 35.78125 29.941406 35.78125 C 18.574219 35.78125 8.328125 31.570312 0.59375 24.566406 C -0.0195312 24.011719 0.53125 23.261719 1.261719 23.695312 C 9.632812 28.5625 19.953125 31.511719 30.632812 31.511719 C 37.835938 31.511719 45.75 30.007812 53.03125 26.921875 C 54.117188 26.425781 55.046875 27.632812 53.980469 28.425781 Z M 53.980469 28.425781 "/>
<path style=" stroke:none;fill-rule:evenodd;fill:rgb(100%,60%,0%);fill-opacity:1;" d="M 56.683594 25.339844 C 55.855469 24.269531 51.199219 24.824219 49.085938 25.082031 C 48.453125 25.160156 48.355469 24.605469 48.925781 24.191406 C 52.636719 21.582031 58.738281 22.332031 59.449219 23.203125 C 60.15625 24.09375 59.25 30.203125 55.777344 33.132812 C 55.242188 33.585938 54.730469 33.347656 54.96875 32.757812 C 55.757812 30.796875 57.511719 26.386719 56.683594 25.339844 Z M 56.683594 25.339844 "/>
</g>
</svg>
